# xmcd
#
# Track frame offsets:
#	150
#	17200
#	35612
#	53060
#	69020
#	85705
#	99482
#	118340
#	136957
#	151845
#	167400
#	180215
#	193040
#	203752
#	218147
#
# Disc length: 3095 seconds
#
# Revision: 4
# Processed by: cddbd v1.5.2PL0 Copyright (c) Steve Scherf et al.
# Submitted via: audiograbber 1.83.01
#
DISCID=bd0c150f
DTITLE=Various Artist - Die Party Box Disc 4
DYEAR=1992
DGENRE=Lovesong
TTITLE0=Bonnie Tyler - Here Am I
TTITLE1=Gloria Gaynor - Everytime I Go Away
TTITLE2=Kevin Johnson - Night Rider
TTITLE3=Sally Oldfield - Mirrors
TTITLE4=Tony Christie - Summer Wine
TTITLE5=Phil Everly - Summershine
TTITLE6=O.C. Smith - Little Green Apples
TTITLE7=Sacha Distel - Feelings
TTITLE8=Long John Baldry - Let The Heartaches Begin
TTITLE9=The Searchers - All My Sorrows
TTITLE10=The Tremeloes - Rag Doll
TTITLE11=Jimmy Justice - Save The Last Dance For Me
TTITLE12=The Overlanders - Michelle
TTITLE13=David Garrick - Lady Jane
TTITLE14=The Tremeloes - Silence is Golden
EXTD=
EXTT0=
EXTT1=
EXTT2=
EXTT3=
EXTT4=
EXTT5=
EXTT6=
EXTT7=
EXTT8=
EXTT9=
EXTT10=
EXTT11=
EXTT12=
EXTT13=
EXTT14=
PLAYORDER=
